# xmcd
#
# Track frame offsets:
#	150
#	21593
#	41095
#	62942
#	78412
#	95988
#	113008
#	138197
#	156129
#	174471
#	200372
#
# Disc length: 2936 seconds
#
# Revision: 1
# Processed by: cddbd v1.5.2PL0 Copyright (c) Steve Scherf et al.
# Submitted via: audiograbber 1.83.01
#
DISCID=970b760b
DTITLE=Valiant Swart - nagrit
DYEAR=2015
DGENRE=
TTITLE0=val ek om
TTITLE1=dooierus
TTITLE2=hmm hmm nana
TTITLE3=dubbel en dwars
TTITLE4=karnavalmaan
TTITLE5=Vrydag in die Vrystaat
TTITLE6=die voetsoldaar se lied
TTITLE7=bitter Wind
TTITLE8=op die middernaggety
TTITLE9=die nag is ook 'n plek
TTITLE10=nagrit
EXTD=
EXTT0=
EXTT1=
EXTT2=
EXTT3=
EXTT4=
EXTT5=
EXTT6=
EXTT7=
EXTT8=
EXTT9=
EXTT10=
PLAYORDER=
